<svg width="301" height="301" viewBox="0 0 301 301" fill="none" xmlns="http://www.w3.org/2000/svg">
<g clip-path="url(#clip0_1_2)">
<mask id="mask0_1_2" style="mask-type:luminance" maskUnits="userSpaceOnUse" x="-2" y="-2" width="303" height="303">
<path d="M301 -1.42114H-1.46976V300.821H301V-1.42114Z" fill="white"/>
</mask>
<g mask="url(#mask0_1_2)">
<mask id="path-2-outside-1_1_2" maskUnits="userSpaceOnUse" x="7.74886" y="6.93828" width="285" height="285" fill="black">
<rect fill="white" x="7.74886" y="6.93828" width="285" height="285"/>
<path fill-rule="evenodd" clip-rule="evenodd" d="M143.23 8.93828C75.2808 12.0354 19.8702 63.1851 10.2337 129.177H96.5529V129.278H96.6285V214.368H83.0033V143.17H8.89759C8.79879 145.334 8.74886 147.511 8.74886 149.7C8.74886 225.334 68.3826 287.049 143.23 290.461V8.93828ZM156.3 290.461V8.93828C231.148 12.3498 290.781 74.0658 290.781 149.7C290.781 201.674 262.621 247.076 220.715 271.502V129.177H206.712V278.648C191.178 285.507 174.173 289.646 156.3 290.461ZM220.614 99.3261H206.989V80.9462H220.614V99.3261Z"/>
</mask>
<path fill-rule="evenodd" clip-rule="evenodd" d="M143.23 8.93828C75.2808 12.0354 19.8702 63.1851 10.2337 129.177H96.5529V129.278H96.6285V214.368H83.0033V143.17H8.89759C8.79879 145.334 8.74886 147.511 8.74886 149.7C8.74886 225.334 68.3826 287.049 143.23 290.461V8.93828ZM156.3 290.461V8.93828C231.148 12.3498 290.781 74.0658 290.781 149.7C290.781 201.674 262.621 247.076 220.715 271.502V129.177H206.712V278.648C191.178 285.507 174.173 289.646 156.3 290.461ZM220.614 99.3261H206.989V80.9462H220.614V99.3261Z" fill="black"/>
<path d="M10.2337 129.177L9.24417 129.033L9.07705 130.177H10.2337V129.177ZM143.23 8.93828H144.23V7.89166L143.185 7.93932L143.23 8.93828ZM96.5529 129.177H97.5529V128.177H96.5529V129.177ZM96.5529 129.278H95.5529V130.278H96.5529V129.278ZM96.6285 129.278H97.6285V128.278H96.6285V129.278ZM96.6285 214.368V215.368H97.6285V214.368H96.6285ZM83.0033 214.368H82.0033V215.368H83.0033V214.368ZM83.0033 143.17H84.0033V142.17H83.0033V143.17ZM8.89759 143.17V142.17H7.94219L7.89863 143.124L8.89759 143.17ZM143.23 290.461L143.185 291.46L144.23 291.508V290.461H143.23ZM156.3 8.93828L156.346 7.93932L155.3 7.89166V8.93828H156.3ZM156.3 290.461H155.3V291.508L156.346 291.46L156.3 290.461ZM220.715 271.502H219.715V273.243L221.218 272.366L220.715 271.502ZM220.715 129.177H221.715V128.177H220.715V129.177ZM206.712 129.177V128.177H205.712V129.177H206.712ZM206.712 278.648L207.116 279.562L207.712 279.299V278.648H206.712ZM206.989 99.3261H205.989V100.326H206.989V99.3261ZM220.614 99.3261V100.326H221.614V99.3261H220.614ZM206.989 80.9462V79.9462H205.989V80.9462H206.989ZM220.614 80.9462H221.614V79.9462H220.614V80.9462ZM11.2232 129.322C20.791 63.7996 75.8093 13.0123 143.276 9.93724L143.185 7.93932C74.7523 11.0584 18.9493 62.5706 9.24417 129.033L11.2232 129.322ZM96.5529 128.177H10.2337V130.177H96.5529V128.177ZM97.5529 129.278V129.177H95.5529V129.278H97.5529ZM96.6285 128.278H96.5529V130.278H96.6285V128.278ZM97.6285 214.368V129.278H95.6285V214.368H97.6285ZM83.0033 215.368H96.6285V213.368H83.0033V215.368ZM82.0033 143.17V214.368H84.0033V143.17H82.0033ZM8.89759 144.17H83.0033V142.17H8.89759V144.17ZM9.74886 149.7C9.74886 147.526 9.79844 145.364 9.89655 143.215L7.89863 143.124C7.79914 145.304 7.74886 147.496 7.74886 149.7H9.74886ZM143.276 289.462C68.959 286.075 9.74886 224.796 9.74886 149.7H7.74886C7.74886 225.871 67.8062 288.024 143.185 291.46L143.276 289.462ZM142.23 8.93828V290.461H144.23V8.93828H142.23ZM155.3 8.93828V290.461H157.3V8.93828H155.3ZM291.781 149.7C291.781 73.5281 231.724 11.375 156.346 7.93932L156.254 9.93724C230.571 13.3246 289.781 74.6035 289.781 149.7H291.781ZM221.218 272.366C263.419 247.768 291.781 202.045 291.781 149.7H289.781C289.781 201.304 261.823 246.384 220.211 270.638L221.218 272.366ZM219.715 129.177V271.502H221.715V129.177H219.715ZM206.712 130.177H220.715V128.177H206.712V130.177ZM207.712 278.648V129.177H205.712V278.648H207.712ZM156.346 291.46C174.344 290.64 191.471 286.471 207.116 279.562L206.308 277.733C190.886 284.543 174.002 288.653 156.254 289.462L156.346 291.46ZM206.989 100.326H220.614V98.3261H206.989V100.326ZM205.989 80.9462V99.3261H207.989V80.9462H205.989ZM220.614 79.9462H206.989V81.9462H220.614V79.9462ZM221.614 99.3261V80.9462H219.614V99.3261H221.614Z" fill="white" mask="url(#path-2-outside-1_1_2)"/>
</g>
</g>
<defs>
<clipPath id="clip0_1_2">
<rect width="301" height="301" fill="white"/>
</clipPath>
</defs>
</svg>
